<svg width="38" height="38" viewBox="0 0 38 38" fill="none" xmlns="http://www.w3.org/2000/svg">
<ellipse cx="18.8683" cy="18.8683" rx="18.8683" ry="18.8683" fill="url(#paint0_linear_1_1826)"/>
<path d="M9.57962 28.7053H13.5276V14.0976H9.57962V28.7053ZM11.5536 7.64917C10.2376 7.64917 9.18481 8.70198 9.18481 10.018C9.18481 11.334 10.2376 12.3868 11.5536 12.3868C12.8696 12.3868 13.9224 11.334 13.9224 10.018C13.9224 8.70198 12.8696 7.64917 11.5536 7.64917ZM20.2393 16.3348V14.0976H16.2913V28.7053H20.2393V21.204C20.2393 16.9928 25.6349 16.7296 25.6349 21.204V28.7053H29.5829V19.7564C29.5829 12.65 22.0817 12.9132 20.2393 16.3348Z" fill="#1F2626"/>
<defs>
<linearGradient id="paint0_linear_1_1826" x1="0" y1="18.8683" x2="37.7365" y2="18.8683" gradientUnits="userSpaceOnUse">
<stop stop-color="#00F5A0"/>
<stop offset="1" stop-color="#00D9F5"/>
</linearGradient>
</defs>
</svg>
